<svg width="400" height="400" viewBox="0 0 400 400" fill="none" xmlns="http://www.w3.org/2000/svg">
  <!-- Completion Confetti: Celebratory particles -->
  <!-- Colors: Indigo #6366F1, Violet #8B5CF6, Emerald #10B981, Amber #F59E0B -->
  <!-- Use CSS animations for falling/floating effect -->
  
  <defs>
    <style>
      .confetti {
        animation: fall 3s ease-in-out infinite;
        transform-origin: center;
      }
      .confetti:nth-child(odd) { animation-delay: -0.5s; }
      .confetti:nth-child(even) { animation-delay: -1.5s; }
      @keyframes fall {
        0%, 100% { transform: translateY(0) rotate(0deg); opacity: 0; }
        10% { opacity: 1; }
        90% { opacity: 1; }
        100% { transform: translateY(100px) rotate(360deg); opacity: 0; }
      }
    </style>
  </defs>
  
  <!-- Confetti pieces - scattered across the canvas -->
  <!-- Row 1 -->
  <rect x="50" y="40" width="8" height="16" rx="2" fill="#6366F1" class="confetti" transform="rotate(15 54 48)"/>
  <circle cx="100" cy="60" r="5" fill="#8B5CF6" class="confetti"/>
  <rect x="150" y="30" width="12" height="6" rx="1" fill="#10B981" class="confetti" transform="rotate(-20 156 33)"/>
  <rect x="200" y="50" width="6" height="14" rx="2" fill="#F59E0B" class="confetti" transform="rotate(45 203 57)"/>
  <circle cx="250" cy="40" r="4" fill="#6366F1" class="confetti"/>
  <rect x="300" y="55" width="10" height="5" rx="1" fill="#8B5CF6" class="confetti" transform="rotate(-10 305 57)"/>
  <rect x="350" y="35" width="7" height="14" rx="2" fill="#10B981" class="confetti" transform="rotate(30 353 42)"/>
  
  <!-- Row 2 -->
  <rect x="30" y="100" width="10" height="5" rx="1" fill="#F59E0B" class="confetti" transform="rotate(25 35 102)"/>
  <circle cx="80" cy="120" r="6" fill="#6366F1" class="confetti"/>
  <rect x="130" y="90" width="6" height="12" rx="2" fill="#8B5CF6" class="confetti" transform="rotate(-35 133 96)"/>
  <rect x="180" y="110" width="14" height="7" rx="2" fill="#10B981" class="confetti" transform="rotate(10 187 113)"/>
  <circle cx="230" cy="95" r="5" fill="#F59E0B" class="confetti"/>
  <rect x="280" y="105" width="8" height="16" rx="2" fill="#6366F1" class="confetti" transform="rotate(-15 284 113)"/>
  <rect x="330" y="85" width="5" height="10" rx="1" fill="#8B5CF6" class="confetti" transform="rotate(40 332 90)"/>
  <circle cx="370" cy="115" r="4" fill="#10B981" class="confetti"/>
  
  <!-- Row 3 -->
  <circle cx="60" cy="170" r="5" fill="#8B5CF6" class="confetti"/>
  <rect x="110" y="155" width="7" height="14" rx="2" fill="#10B981" class="confetti" transform="rotate(20 113 162)"/>
  <rect x="160" y="175" width="12" height="6" rx="1" fill="#F59E0B" class="confetti" transform="rotate(-25 166 178)"/>
  <circle cx="210" cy="160" r="6" fill="#6366F1" class="confetti"/>
  <rect x="260" y="170" width="8" height="4" rx="1" fill="#8B5CF6" class="confetti" transform="rotate(35 264 172)"/>
  <rect x="310" y="150" width="6" height="12" rx="2" fill="#10B981" class="confetti" transform="rotate(-5 313 156)"/>
  <circle cx="360" cy="180" r="5" fill="#F59E0B" class="confetti"/>
  
  <!-- Star shapes for extra celebration -->
  <polygon points="200,200 205,215 220,215 208,225 213,240 200,230 187,240 192,225 180,215 195,215" fill="#6366F1" fill-opacity="0.8" class="confetti"/>
</svg>

