<svg width="1200" height="630" viewBox="0 0 1200 630" fill="none" xmlns="http://www.w3.org/2000/svg">
  <!-- Background gradient -->
  <rect width="1200" height="630" fill="#F0FDFA"/>
  <rect width="1200" height="630" fill="url(#grad)" opacity="0.5"/>
  <defs>
    <linearGradient id="grad" x1="0" y1="0" x2="1200" y2="630">
      <stop offset="0%" stop-color="#CCFBF1"/>
      <stop offset="100%" stop-color="#F0FDFA"/>
    </linearGradient>
  </defs>
  
  <!-- Logo area -->
  <g transform="translate(80, 100)">
    <!-- Pan icon -->
    <ellipse cx="40" cy="55" rx="35" ry="12" fill="#0D9488"/>
    <ellipse cx="40" cy="48" rx="35" ry="12" fill="#14B8A6"/>
    <path d="M75 48 L105 42" stroke="#0D9488" stroke-width="8" stroke-linecap="round"/>
    <!-- Checkmark -->
    <path d="M25 30 L35 40 L55 18" stroke="#10B981" stroke-width="6" stroke-linecap="round" stroke-linejoin="round"/>
  </g>
  
  <!-- Title -->
  <text x="200" y="150" font-family="system-ui, -apple-system, sans-serif" font-size="56" font-weight="700" fill="#0F172A">PFAS-Free Kitchen</text>
  
  <!-- Tagline -->
  <text x="80" y="250" font-family="system-ui, -apple-system, sans-serif" font-size="36" fill="#475569">Find Verified PFAS-Free Cookware &amp; Kitchen Products</text>
  
  <!-- Features -->
  <g transform="translate(80, 320)">
    <g transform="translate(0, 0)">
      <circle cx="20" cy="20" r="20" fill="#0D9488"/>
      <path d="M12 20 L18 26 L28 14" stroke="white" stroke-width="3" stroke-linecap="round" stroke-linejoin="round"/>
      <text x="55" y="28" font-family="system-ui, sans-serif" font-size="24" fill="#374151">Independently Verified</text>
    </g>
    <g transform="translate(350, 0)">
      <circle cx="20" cy="20" r="20" fill="#2563EB"/>
      <path d="M10 15 L20 25 L30 10" stroke="white" stroke-width="3" fill="none"/>
      <text x="55" y="28" font-family="system-ui, sans-serif" font-size="24" fill="#374151">Lab Tested Products</text>
    </g>
    <g transform="translate(650, 0)">
      <circle cx="20" cy="20" r="20" fill="#7C3AED"/>
      <text x="20" y="28" font-family="system-ui, sans-serif" font-size="20" fill="white" text-anchor="middle">★</text>
      <text x="55" y="28" font-family="system-ui, sans-serif" font-size="24" fill="#374151">Transparent Ratings</text>
    </g>
  </g>
  
  <!-- Decorative cookware illustrations -->
  <g transform="translate(850, 380)" opacity="0.3">
    <ellipse cx="80" cy="100" rx="70" ry="20" fill="#0D9488"/>
    <ellipse cx="80" cy="85" rx="70" ry="20" fill="#14B8A6"/>
    <path d="M150 85 L200 75" stroke="#0D9488" stroke-width="10" stroke-linecap="round"/>
  </g>
  
  <!-- URL -->
  <text x="80" y="580" font-family="system-ui, sans-serif" font-size="28" fill="#0D9488">pfasfreekitchen.com</text>
</svg>
